<svg width="724" height="194" viewBox="0 0 724 194" fill="none" xmlns="http://www.w3.org/2000/svg">
<path d="M515.492 193.337L723.158 0.91006L609.464 0.766981L470.485 193.28L515.492 193.337Z" fill="#F04D43" fill-opacity="0.5"/>
<path d="M470.485 193.28L609.464 0.766981L478.043 0.601596L418 193.214L470.485 193.28Z" fill="#F47938" fill-opacity="0.5"/>
<path d="M418 193.214L478.043 0.601596L365.18 0.459563L365.376 193.148L418 193.214Z" fill="#FEBC24" fill-opacity="0.5"/>
<path d="M365.376 193.148L365.18 0.459563L253.839 0.319448L318.984 193.09L365.376 193.148Z" fill="#00AFB0" fill-opacity="0.5"/>
<path d="M120.896 0.152145L272.593 193.031L318.984 193.09L253.839 0.319448L120.896 0.152145Z" fill="#0088CE" fill-opacity="0.5"/>
<path d="M9.6994e-05 4.77834e-06L207.783 192.95L272.593 193.031L120.896 0.152145L9.6994e-05 4.77834e-06Z" fill="#62489D" fill-opacity="0.5"/>
</svg>
