<svg width="724" height="185" viewBox="0 0 724 185" fill="none" xmlns="http://www.w3.org/2000/svg">
<path d="M208.586 0.311806L0.627407 182.844L114.322 183.163L253.593 0.438048L208.586 0.311806Z" fill="#F04D43" fill-opacity="0.5"/>
<path d="M253.593 0.438048L114.322 183.163L245.741 183.531L306.078 0.585266L253.593 0.438048Z" fill="#F47938" fill-opacity="0.5"/>
<path d="M306.078 0.585266L245.741 183.531L358.605 183.848L358.701 0.732873L306.078 0.585266Z" fill="#FEBC24" fill-opacity="0.5"/>
<path d="M358.701 0.732873L358.605 183.848L469.945 184.16L405.093 0.863L358.701 0.732873Z" fill="#00AFB0" fill-opacity="0.5"/>
<path d="M602.888 184.533L451.484 0.993127L405.093 0.863L469.945 184.16L602.888 184.533Z" fill="#0088CE" fill-opacity="0.5"/>
<path d="M723.783 184.872L516.294 1.17492L451.484 0.993127L602.888 184.533L723.783 184.872Z" fill="#62489D" fill-opacity="0.5"/>
</svg>
