<svg width="759" height="636" viewBox="0 0 759 636" fill="none" xmlns="http://www.w3.org/2000/svg">
<rect x="14.719" y="248.529" width="744.279" height="387.471" fill="#313334"/>
<line y1="-1.5" x2="744.282" y2="-1.5" transform="matrix(0.999996 -0.00262928 0.00303496 0.999995 14.719 371.815)" stroke="white" stroke-width="3"/>
<line x1="14.7174" y1="458.377" x2="758.999" y2="458.377" stroke="white" stroke-width="3"/>
<line x1="14.719" y1="573.835" x2="758.998" y2="573.835" stroke="white" stroke-width="3"/>
<line x1="386.256" y1="575.335" x2="386.256" y2="636" stroke="white" stroke-width="3"/>
<line x1="14.719" y1="280.061" x2="759" y2="280.061" stroke="white" stroke-width="3"/>
<path d="M14.7174 183.951H758.997V254.4H14.7174V183.951Z" fill="#313334"/>
<path d="M14.7174 183.951H758.997V254.4H14.7174V183.951Z" fill="#313334"/>
<path d="M253.871 250.368L292.674 186.055L362.88 185.576L325.141 249.881L253.871 250.368Z" fill="white"/>
<path d="M66.4102 251.406L105.213 187.092L175.42 186.613L137.68 250.918L66.4102 251.406Z" fill="white"/>
<path d="M441.331 250.368L480.134 186.055L550.341 185.576L512.601 249.881L441.331 250.368Z" fill="white"/>
<path d="M628.791 250.368L667.594 186.055L737.801 185.576L700.062 249.881L628.791 250.368Z" fill="white"/>
<path d="M14.4913 192.384L751.527 95.9718L740.993 26.2081L3.9574 122.62L14.4913 192.384Z" fill="#313334"/>
<path d="M14.4913 192.384L751.527 95.9718L740.993 26.2081L3.9574 122.62L14.4913 192.384Z" fill="#313334"/>
<path d="M241.386 95.6338L289.428 154.295L359.023 145.675L312.036 86.8839L241.386 95.6338Z" fill="#FEFEFE"/>
<path d="M55.5948 118.89L103.637 177.551L173.232 168.931L126.244 110.14L55.5948 118.89Z" fill="#FEFEFE"/>
<path d="M427.022 71.3511L475.064 130.012L544.659 121.392L497.672 62.6012L427.022 71.3511Z" fill="#FEFEFE"/>
<path d="M612.658 47.0674L660.7 105.728L730.295 97.1087L683.308 38.3175L612.658 47.0674Z" fill="#FEFEFE"/>
<ellipse cx="40.9984" cy="176.123" rx="15.7686" ry="15.6554" fill="white"/>
</svg>
