<svg width="347" height="128" viewBox="0 0 347 128" fill="none" xmlns="http://www.w3.org/2000/svg">
<path d="M35.6731 0H311.885V5.7455C311.885 10.749 314.612 15.3547 319 17.7603V17.7603C321.019 18.8675 323.285 19.4479 325.588 19.4479H346.539V29.6918H341.167C338.505 29.6918 336.347 31.85 336.347 34.5124V34.5124V34.5124C336.347 37.1748 338.505 39.333 341.167 39.333H346.539V48.3718H341.77C338.775 48.3718 336.347 50.7998 336.347 53.795V53.795V53.795C336.347 57.1229 339.045 59.8208 342.373 59.8208H346.539V70.0646H342.373C339.045 70.0646 336.347 72.7625 336.347 76.0904V76.0904V76.0904C336.347 79.0856 338.775 81.5137 341.77 81.5137H346.539V89.9498H341.77C338.775 89.9498 336.347 92.3778 336.347 95.373V95.373V95.373C336.347 98.3682 338.775 100.796 341.77 100.796H346.539V109.835H324.666C322.958 109.835 321.267 110.178 319.693 110.842V110.842C314.961 112.841 311.885 117.479 311.885 122.616V128H35.6731V125.579C35.6731 118.758 31.2815 112.714 24.7949 110.606V110.606C23.2235 110.095 21.5815 109.835 19.9292 109.835H0V100.796H6.80758C9.80274 100.796 12.2308 98.3682 12.2308 95.373V95.373V95.373C12.2308 92.3778 9.80273 89.9498 6.80757 89.9498H0V81.5137H6.80758C9.80274 81.5137 12.2308 79.0856 12.2308 76.0904V76.0904V76.0904C12.2308 72.7625 9.53295 70.0646 6.20499 70.0646H0V59.8208H6.205C9.53295 59.8208 12.2308 57.1229 12.2308 53.795V53.795V53.795C12.2308 50.7998 9.80273 48.3718 6.80757 48.3718H0V39.333H7.41016C10.0725 39.333 12.2308 37.1748 12.2308 34.5124V34.5124V34.5124C12.2308 31.85 10.0725 29.6918 7.41015 29.6918H0V19.4479H17.5012C20.7244 19.4479 23.8896 18.5906 26.6722 16.9639V16.9639C32.2467 13.7051 35.6731 7.73304 35.6731 1.27597V0Z" fill="#FCE1B8"/>
<path d="M41.88 4H309.1V7.49582C309.1 12.9707 312.135 17.9943 316.982 20.541C319.096 21.652 321.448 22.2324 323.837 22.2324H343V27.0666L338.926 27.2518C335.051 27.4279 332 30.6209 332 34.5C332 38.6421 335.358 42 339.5 42H343V45H340.5C335.806 45 332 48.8056 332 53.5C332 58.7467 336.253 63 341.5 63H343V66.5H342.529C337.283 66.5 333.029 70.7533 333.029 76C333.029 80.6944 336.835 84.5 341.529 84.5H343V87H341.529C336.835 87 333.029 90.8056 333.029 95.5C333.029 99.9183 336.611 103.5 341.029 103.5H343V106H322.328C321.349 106 320.373 106.093 319.412 106.279C313.309 107.456 308.514 112.189 307.255 118.275L306.278 123H176H42.6496L41.7213 119.552C40.1695 113.788 35.906 109.142 30.2963 107.103C28.2904 106.373 26.1724 106 24.038 106H7V103.188L9.47648 102.605C13.0057 101.775 15.5 98.6256 15.5 95C15.5 91.9631 13.4993 89.2892 10.5858 88.4323L7 87.3776V84.7585L7.85958 84.6068C12.2786 83.827 15.5 79.9873 15.5 75.5C15.5 71.3076 12.4429 67.7414 8.2997 67.1007L7 66.8997V63.3339L7.71978 63.2492C12.1564 62.7272 15.5 58.9672 15.5 54.5C15.5 49.9955 12.4011 46.0828 8.01635 45.0511L7 44.812V42.2404L9.49371 41.7635C12.9792 41.0971 15.5 38.0487 15.5 34.5C15.5 30.0558 12.0358 26.3819 7.5993 26.1209L7 26.0856V22.2324H22.8566C26.1155 22.2324 29.3198 21.396 32.1629 19.8032C37.9386 16.5674 41.6016 10.5761 41.88 4Z" stroke="black" stroke-width="3"/>
<path d="M317.5 24L317.368 24.4824C321.063 25.4899 324.889 25.9304 328.715 25.7887L333.519 25.6107L333.064 25.7859C330.861 26.6332 329.054 28.2734 327.999 30.3846C327.342 31.6981 327 33.1465 327 34.6151V34.7328C327 37.2797 327.976 39.7299 329.727 41.5794L330.637 42.5405L330.712 42.6201L330.814 42.6608L334.409 44.1015L331.221 46.1302C330.178 46.7943 329.296 47.6834 328.64 48.7324C327.568 50.4484 327.159 52.4972 327.492 54.4933L327.672 55.5706C327.903 56.9619 328.396 58.2967 329.125 59.5047L330.572 61.9057L330.633 62.0067L330.732 62.0698L334.567 64.5008L333.733 65.0315C331.048 66.7406 329.032 69.322 328.026 72.3419L328.5 72.5L328.01 72.4019L327.945 72.7253C327.319 75.855 327.901 79.1056 329.574 81.8236L330 81.5615L329.709 81.968L334.561 85.4426L332.282 86.6855C330.55 87.6303 329.216 89.1667 328.523 91.0141C328.177 91.9367 328 92.9141 328 93.8994V94.0826C328 95.755 328.455 97.396 329.315 98.8301L329.571 99.2572L329.594 99.2956L329.624 99.3293L332.398 102.5H323.547C319.823 102.5 316.158 103.424 312.879 105.189L311.263 106.06L311.5 106.5L311.206 106.096C307.547 108.757 304.838 112.52 303.475 116.834L302.634 119.5H173.932L45.3031 118.502L41.7869 111.822C40.8701 110.08 39.6519 108.514 38.1888 107.197L37.2594 106.361C35.9357 105.169 34.3512 104.305 32.6331 103.836C30.5981 103.281 28.4982 103 26.3888 103H24.5H15.3307L16.3102 102.143C17.693 100.933 18.8367 99.4446 19.6576 97.8027C20.2066 96.7049 20.5 95.4795 20.5 94.25C20.5 93.0215 20.214 91.8099 19.6646 90.7111L19.618 90.618C18.8097 89.0013 17.4987 87.6903 15.882 86.882L12.9942 85.4381L17.5753 82.3841C18.0937 82.0385 18.5385 81.5937 18.8841 81.0753C19.9377 79.4948 20.5 77.6377 20.5 75.7382V74.2864C20.5 74.0596 20.4752 73.8334 20.426 73.6119L20.2775 72.9439C19.7432 70.5396 18.2811 68.4435 16.2093 67.1116L13.1253 65.129L13.3731 65.0405C17.1163 63.7037 19.8255 60.4226 20.4299 56.494C20.4766 56.1906 20.5 55.8841 20.5 55.5771V53.4771C20.5 52.0993 20.1792 50.7404 19.563 49.508C18.7915 47.965 17.587 46.6802 16.0968 45.8109L13.0936 44.0591L15.1983 43.1188L15.2039 43.1164L15.4113 43.0268C18.5 41.6926 20.5 38.65 20.5 35.2855C20.5 34.7302 20.4451 34.1762 20.3362 33.6317L20.301 33.4553C19.7563 30.7318 18.1295 28.346 15.7932 26.8441L13.7024 25.5H19H20.1798C24.7508 25.5 29.2919 24.7631 33.6284 23.3176C34.354 23.0757 35.0441 22.7382 35.6805 22.3139L36.2837 21.9118C38.3122 20.5594 40.096 18.872 41.5587 16.9217C42.1468 16.1376 42.6119 15.2685 42.9382 14.3442L45.3538 7.5H305.559L306.099 11.8247C306.375 14.03 307.142 16.1453 308.344 18.0148C310.176 20.8647 312.927 23.0028 316.141 24.0742L317.342 24.4743L317.5 24Z" stroke="black"/>
<path d="M48.82 40.0972C48.82 38.7932 49.096 37.8452 49.648 37.2532C50.208 36.6692 51.124 36.3612 52.396 36.3292C52.972 36.3052 53.512 36.2932 54.016 36.2932C54.52 36.2932 55.036 36.3052 55.564 36.3292V38.4292C55.212 38.4052 54.832 38.3892 54.424 38.3812C54.024 38.3812 53.628 38.3812 53.236 38.3812C52.844 38.3892 52.48 38.4012 52.144 38.4172C51.608 38.4572 51.212 38.6012 50.956 38.8492C50.7 39.0972 50.572 39.4932 50.572 40.0372C50.572 40.5732 50.7 40.9652 50.956 41.2132C51.212 41.4612 51.608 41.6012 52.144 41.6332C53.088 41.6892 53.996 41.7172 54.868 41.7172C55.74 41.7252 56.644 41.7052 57.58 41.6572C58.084 41.6332 58.456 41.5052 58.696 41.2732C58.936 41.0412 59.056 40.6852 59.056 40.2052C59.056 39.8612 58.992 39.5692 58.864 39.3292C58.744 39.0892 58.572 38.9012 58.348 38.7652C58.124 38.6292 57.856 38.5572 57.544 38.5492V36.5452H68.2V43.5772H66.328V38.6452H59.728V39.0532C60.032 39.2132 60.292 39.4692 60.508 39.8212C60.724 40.1812 60.832 40.6052 60.832 41.0932C60.832 41.9652 60.552 42.6132 59.992 43.0372C59.44 43.4692 58.648 43.7092 57.616 43.7572C56.976 43.7812 56.364 43.7932 55.78 43.7932C55.196 43.8012 54.624 43.7972 54.064 43.7812C53.504 43.7732 52.948 43.7572 52.396 43.7332C51.548 43.6612 50.86 43.4972 50.332 43.2412C49.804 42.9932 49.42 42.6132 49.18 42.1012C48.94 41.5972 48.82 40.9292 48.82 40.0972ZM48.82 49.9644C48.82 48.6604 49.096 47.7124 49.648 47.1204C50.208 46.5364 51.124 46.2284 52.396 46.1964C52.972 46.1724 53.512 46.1604 54.016 46.1604C54.52 46.1604 55.036 46.1724 55.564 46.1964V48.2964C55.212 48.2724 54.832 48.2564 54.424 48.2484C54.024 48.2484 53.628 48.2484 53.236 48.2484C52.844 48.2564 52.48 48.2684 52.144 48.2844C51.608 48.3244 51.212 48.4684 50.956 48.7164C50.7 48.9644 50.572 49.3604 50.572 49.9044C50.572 50.4404 50.7 50.8324 50.956 51.0804C51.212 51.3284 51.608 51.4684 52.144 51.5004C53.088 51.5564 53.996 51.5844 54.868 51.5844C55.74 51.5924 56.644 51.5724 57.58 51.5244C58.084 51.5004 58.456 51.3724 58.696 51.1404C58.936 50.9084 59.056 50.5524 59.056 50.0724C59.056 49.7284 58.992 49.4364 58.864 49.1964C58.744 48.9564 58.572 48.7684 58.348 48.6324C58.124 48.4964 57.856 48.4244 57.544 48.4164V46.4124H68.2V53.4444H66.328V48.5124H59.728V48.9204C60.032 49.0804 60.292 49.3364 60.508 49.6884C60.724 50.0484 60.832 50.4724 60.832 50.9604C60.832 51.8324 60.552 52.4804 59.992 52.9044C59.44 53.3364 58.648 53.5764 57.616 53.6244C56.976 53.6484 56.364 53.6604 55.78 53.6604C55.196 53.6684 54.624 53.6644 54.064 53.6484C53.504 53.6404 52.948 53.6244 52.396 53.6004C51.548 53.5284 50.86 53.3644 50.332 53.1084C49.804 52.8604 49.42 52.4804 49.18 51.9684C48.94 51.4644 48.82 50.7964 48.82 49.9644ZM49 56.1116C49.296 56.1036 49.552 56.0956 49.768 56.0876C49.984 56.0876 50.18 56.0836 50.356 56.0756C50.54 56.0756 50.732 56.0756 50.932 56.0756C51.14 56.0756 51.38 56.0756 51.652 56.0756C51.924 56.0756 52.26 56.0796 52.66 56.0876C53.7 56.1116 54.572 56.2396 55.276 56.4716C55.988 56.7036 56.588 57.0236 57.076 57.4316C57.564 57.8476 57.992 58.3316 58.36 58.8836L59.188 60.0716C59.572 60.5676 59.988 60.8876 60.436 61.0316C60.892 61.1756 61.348 61.2596 61.804 61.2836C62.364 61.3156 62.924 61.3316 63.484 61.3316C64.044 61.3316 64.604 61.3156 65.164 61.2836C65.668 61.2596 66.04 61.1196 66.28 60.8636C66.52 60.6156 66.64 60.2156 66.64 59.6636C66.64 59.1516 66.52 58.7756 66.28 58.5356C66.04 58.3036 65.668 58.1796 65.164 58.1636C64.54 58.1476 63.912 58.1396 63.28 58.1396C62.656 58.1396 62.032 58.1516 61.408 58.1756V56.1116C61.808 56.0956 62.208 56.0836 62.608 56.0756C63.016 56.0676 63.408 56.0596 63.784 56.0516C64.168 56.0516 64.512 56.0556 64.816 56.0636C66.088 56.1196 67 56.4276 67.552 56.9876C68.104 57.5476 68.38 58.4476 68.38 59.6876C68.38 60.5676 68.26 61.2676 68.02 61.7876C67.788 62.3156 67.408 62.7036 66.88 62.9516C66.36 63.1996 65.68 63.3436 64.84 63.3836C64.616 63.3916 64.372 63.3996 64.108 63.4076C63.844 63.4156 63.572 63.4196 63.292 63.4196C63.02 63.4196 62.756 63.4156 62.5 63.4076C62.244 63.4076 62.016 63.4036 61.816 63.3956C61.056 63.3636 60.404 63.2476 59.86 63.0476C59.324 62.8476 58.848 62.5596 58.432 62.1836C58.024 61.8156 57.628 61.3556 57.244 60.8036L56.38 59.5196C56.148 59.2076 55.832 58.9556 55.432 58.7636C55.04 58.5716 54.604 58.4316 54.124 58.3436C53.652 58.2556 53.164 58.2116 52.66 58.2116H50.872V63.2876H49V56.1116ZM49 66.194H66.088V65.27L66.904 65.198L68.2 66.614V68.294H49V66.194ZM49 74.7926L54.616 74.7926V70.1966H56.332L68.2 73.8086V76.7726H56.476V78.5486H54.616V76.7726H49V74.7926ZM56.476 72.2366V74.7926L61.468 75.0566L66.328 75.2846V74.7806L61.468 73.5806L56.476 72.2366ZM49 80.7444C49.296 80.7364 49.552 80.7284 49.768 80.7204C49.984 80.7204 50.18 80.7164 50.356 80.7084C50.54 80.7084 50.732 80.7084 50.932 80.7084C51.14 80.7084 51.38 80.7084 51.652 80.7084C51.924 80.7084 52.26 80.7124 52.66 80.7204C53.7 80.7444 54.572 80.8724 55.276 81.1044C55.988 81.3364 56.588 81.6564 57.076 82.0644C57.564 82.4804 57.992 82.9644 58.36 83.5164L59.188 84.7044C59.572 85.2004 59.988 85.5204 60.436 85.6644C60.892 85.8084 61.348 85.8924 61.804 85.9164C62.364 85.9484 62.924 85.9644 63.484 85.9644C64.044 85.9644 64.604 85.9484 65.164 85.9164C65.668 85.8924 66.04 85.7524 66.28 85.4964C66.52 85.2484 66.64 84.8484 66.64 84.2964C66.64 83.7844 66.52 83.4084 66.28 83.1684C66.04 82.9364 65.668 82.8124 65.164 82.7964C64.54 82.7804 63.912 82.7724 63.28 82.7724C62.656 82.7724 62.032 82.7844 61.408 82.8084V80.7444C61.808 80.7284 62.208 80.7164 62.608 80.7084C63.016 80.7004 63.408 80.6924 63.784 80.6844C64.168 80.6844 64.512 80.6884 64.816 80.6964C66.088 80.7524 67 81.0604 67.552 81.6204C68.104 82.1804 68.38 83.0804 68.38 84.3204C68.38 85.2004 68.26 85.9004 68.02 86.4204C67.788 86.9484 67.408 87.3364 66.88 87.5844C66.36 87.8324 65.68 87.9764 64.84 88.0164C64.616 88.0244 64.372 88.0324 64.108 88.0404C63.844 88.0484 63.572 88.0524 63.292 88.0524C63.02 88.0524 62.756 88.0484 62.5 88.0404C62.244 88.0404 62.016 88.0364 61.816 88.0284C61.056 87.9964 60.404 87.8804 59.86 87.6804C59.324 87.4804 58.848 87.1924 58.432 86.8164C58.024 86.4484 57.628 85.9884 57.244 85.4364L56.38 84.1524C56.148 83.8404 55.832 83.5884 55.432 83.3964C55.04 83.2044 54.604 83.0644 54.124 82.9764C53.652 82.8884 53.164 82.8444 52.66 82.8444H50.872L50.872 87.9204H49L49 80.7444Z" fill="black"/>
<path d="M277.82 40.0972C277.82 38.7932 278.096 37.8452 278.648 37.2532C279.208 36.6692 280.124 36.3612 281.396 36.3292C281.972 36.3052 282.512 36.2932 283.016 36.2932C283.52 36.2932 284.036 36.3052 284.564 36.3292V38.4292C284.212 38.4052 283.832 38.3892 283.424 38.3812C283.024 38.3812 282.628 38.3812 282.236 38.3812C281.844 38.3892 281.48 38.4012 281.144 38.4172C280.608 38.4572 280.212 38.6012 279.956 38.8492C279.7 39.0972 279.572 39.4932 279.572 40.0372C279.572 40.5732 279.7 40.9652 279.956 41.2132C280.212 41.4612 280.608 41.6012 281.144 41.6332C282.088 41.6892 282.996 41.7172 283.868 41.7172C284.74 41.7252 285.644 41.7052 286.58 41.6572C287.084 41.6332 287.456 41.5052 287.696 41.2732C287.936 41.0412 288.056 40.6852 288.056 40.2052C288.056 39.8612 287.992 39.5692 287.864 39.3292C287.744 39.0892 287.572 38.9012 287.348 38.7652C287.124 38.6292 286.856 38.5572 286.544 38.5492V36.5452H297.2L297.2 43.5772H295.328V38.6452H288.728V39.0532C289.032 39.2132 289.292 39.4692 289.508 39.8212C289.724 40.1812 289.832 40.6052 289.832 41.0932C289.832 41.9652 289.552 42.6132 288.992 43.0372C288.44 43.4692 287.648 43.7092 286.616 43.7572C285.976 43.7812 285.364 43.7932 284.78 43.7932C284.196 43.8012 283.624 43.7972 283.064 43.7812C282.504 43.7732 281.948 43.7572 281.396 43.7332C280.548 43.6612 279.86 43.4972 279.332 43.2412C278.804 42.9932 278.42 42.6132 278.18 42.1012C277.94 41.5972 277.82 40.9292 277.82 40.0972ZM277.82 49.9644C277.82 48.6604 278.096 47.7124 278.648 47.1204C279.208 46.5364 280.124 46.2284 281.396 46.1964C281.972 46.1724 282.512 46.1604 283.016 46.1604C283.52 46.1604 284.036 46.1724 284.564 46.1964V48.2964C284.212 48.2724 283.832 48.2564 283.424 48.2484C283.024 48.2484 282.628 48.2484 282.236 48.2484C281.844 48.2564 281.48 48.2684 281.144 48.2844C280.608 48.3244 280.212 48.4684 279.956 48.7164C279.7 48.9644 279.572 49.3604 279.572 49.9044C279.572 50.4404 279.7 50.8324 279.956 51.0804C280.212 51.3284 280.608 51.4684 281.144 51.5004C282.088 51.5564 282.996 51.5844 283.868 51.5844C284.74 51.5924 285.644 51.5724 286.58 51.5244C287.084 51.5004 287.456 51.3724 287.696 51.1404C287.936 50.9084 288.056 50.5524 288.056 50.0724C288.056 49.7284 287.992 49.4364 287.864 49.1964C287.744 48.9564 287.572 48.7684 287.348 48.6324C287.124 48.4964 286.856 48.4244 286.544 48.4164V46.4124H297.2V53.4444H295.328V48.5124H288.728V48.9204C289.032 49.0804 289.292 49.3364 289.508 49.6884C289.724 50.0484 289.832 50.4724 289.832 50.9604C289.832 51.8324 289.552 52.4804 288.992 52.9044C288.44 53.3364 287.648 53.5764 286.616 53.6244C285.976 53.6484 285.364 53.6604 284.78 53.6604C284.196 53.6684 283.624 53.6644 283.064 53.6484C282.504 53.6404 281.948 53.6244 281.396 53.6004C280.548 53.5284 279.86 53.3644 279.332 53.1084C278.804 52.8604 278.42 52.4804 278.18 51.9684C277.94 51.4644 277.82 50.7964 277.82 49.9644ZM278 56.1116C278.296 56.1036 278.552 56.0956 278.768 56.0876C278.984 56.0876 279.18 56.0836 279.356 56.0756C279.54 56.0756 279.732 56.0756 279.932 56.0756C280.14 56.0756 280.38 56.0756 280.652 56.0756C280.924 56.0756 281.26 56.0796 281.66 56.0876C282.7 56.1116 283.572 56.2396 284.276 56.4716C284.988 56.7036 285.588 57.0236 286.076 57.4316C286.564 57.8476 286.992 58.3316 287.36 58.8836L288.188 60.0716C288.572 60.5676 288.988 60.8876 289.436 61.0316C289.892 61.1756 290.348 61.2596 290.804 61.2836C291.364 61.3156 291.924 61.3316 292.484 61.3316C293.044 61.3316 293.604 61.3156 294.164 61.2836C294.668 61.2596 295.04 61.1196 295.28 60.8636C295.52 60.6156 295.64 60.2156 295.64 59.6636C295.64 59.1516 295.52 58.7756 295.28 58.5356C295.04 58.3036 294.668 58.1796 294.164 58.1636C293.54 58.1476 292.912 58.1396 292.28 58.1396C291.656 58.1396 291.032 58.1516 290.408 58.1756V56.1116C290.808 56.0956 291.208 56.0836 291.608 56.0756C292.016 56.0676 292.408 56.0596 292.784 56.0516C293.168 56.0516 293.512 56.0556 293.816 56.0636C295.088 56.1196 296 56.4276 296.552 56.9876C297.104 57.5476 297.38 58.4476 297.38 59.6876C297.38 60.5676 297.26 61.2676 297.02 61.7876C296.788 62.3156 296.408 62.7036 295.88 62.9516C295.36 63.1996 294.68 63.3436 293.84 63.3836C293.616 63.3916 293.372 63.3996 293.108 63.4076C292.844 63.4156 292.572 63.4196 292.292 63.4196C292.02 63.4196 291.756 63.4156 291.5 63.4076C291.244 63.4076 291.016 63.4036 290.816 63.3956C290.056 63.3636 289.404 63.2476 288.86 63.0476C288.324 62.8476 287.848 62.5596 287.432 62.1836C287.024 61.8156 286.628 61.3556 286.244 60.8036L285.38 59.5196C285.148 59.2076 284.832 58.9556 284.432 58.7636C284.04 58.5716 283.604 58.4316 283.124 58.3436C282.652 58.2556 282.164 58.2116 281.66 58.2116H279.872V63.2876H278V56.1116ZM278 66.194H295.088V65.27L295.904 65.198L297.2 66.614V68.294H278V66.194ZM278 74.7926L283.616 74.7926V70.1966H285.332L297.2 73.8086V76.7726H285.476V78.5486H283.616V76.7726H278V74.7926ZM285.476 72.2366V74.7926L290.468 75.0566L295.328 75.2846V74.7806L290.468 73.5806L285.476 72.2366ZM278 80.7444C278.296 80.7364 278.552 80.7284 278.768 80.7204C278.984 80.7204 279.18 80.7164 279.356 80.7084C279.54 80.7084 279.732 80.7084 279.932 80.7084C280.14 80.7084 280.38 80.7084 280.652 80.7084C280.924 80.7084 281.26 80.7124 281.66 80.7204C282.7 80.7444 283.572 80.8724 284.276 81.1044C284.988 81.3364 285.588 81.6564 286.076 82.0644C286.564 82.4804 286.992 82.9644 287.36 83.5164L288.188 84.7044C288.572 85.2004 288.988 85.5204 289.436 85.6644C289.892 85.8084 290.348 85.8924 290.804 85.9164C291.364 85.9484 291.924 85.9644 292.484 85.9644C293.044 85.9644 293.604 85.9484 294.164 85.9164C294.668 85.8924 295.04 85.7524 295.28 85.4964C295.52 85.2484 295.64 84.8484 295.64 84.2964C295.64 83.7844 295.52 83.4084 295.28 83.1684C295.04 82.9364 294.668 82.8124 294.164 82.7964C293.54 82.7804 292.912 82.7724 292.28 82.7724C291.656 82.7724 291.032 82.7844 290.408 82.8084V80.7444C290.808 80.7284 291.208 80.7164 291.608 80.7084C292.016 80.7004 292.408 80.6924 292.784 80.6844C293.168 80.6844 293.512 80.6884 293.816 80.6964C295.088 80.7524 296 81.0604 296.552 81.6204C297.104 82.1804 297.38 83.0804 297.38 84.3204C297.38 85.2004 297.26 85.9004 297.02 86.4204C296.788 86.9484 296.408 87.3364 295.88 87.5844C295.36 87.8324 294.68 87.9764 293.84 88.0164C293.616 88.0244 293.372 88.0324 293.108 88.0404C292.844 88.0484 292.572 88.0524 292.292 88.0524C292.02 88.0524 291.756 88.0484 291.5 88.0404C291.244 88.0404 291.016 88.0364 290.816 88.0284C290.056 87.9964 289.404 87.8804 288.86 87.6804C288.324 87.4804 287.848 87.1924 287.432 86.8164C287.024 86.4484 286.628 85.9884 286.244 85.4364L285.38 84.1524C285.148 83.8404 284.832 83.5884 284.432 83.3964C284.04 83.2044 283.604 83.0644 283.124 82.9764C282.652 82.8884 282.164 82.8444 281.66 82.8444H279.872V87.9204H278V80.7444Z" fill="black"/>
<rect x="44.5" y="13.5" width="257" height="98" rx="18.5" stroke="black"/>
<rect x="71.5" y="13.5" width="201" height="98" stroke="black"/>
</svg>
