<svg width="218" height="213" viewBox="0 0 218 213" fill="none" xmlns="http://www.w3.org/2000/svg">
<ellipse cx="109" cy="106.5" rx="109" ry="106.5" fill="#DDADE4"/>
<path d="M123.51 154.01C121.83 153.886 120.074 153.719 118.468 153.262C116.055 152.554 115.141 150.85 114.922 148.064C114.484 142.117 115.544 136.38 116.421 130.6C117.372 124.447 118.029 118.335 117.298 112.098C116.712 107.316 117.992 102.784 118.98 98.2107C120.805 89.6019 120.734 80.9532 119.052 72.3467C118.943 71.8075 118.906 71.224 118.797 70.5584C122.231 69.7685 123.804 67.0661 124.424 63.4074C125.447 57.2126 126.8 51.0999 127.42 44.863C127.786 41.3707 127.64 37.4191 124.644 34.9253C123.473 33.9268 122.048 33.3877 120.734 32.5978C119.052 31.5994 117.189 30.8494 115.727 29.5204C113.79 27.7742 113.827 26.3187 114.667 23.6562C115.946 19.749 116.421 15.6332 115.544 11.5152C114.739 7.5237 111.414 5.69545 108.015 6.11036C104.433 6.56742 102.094 9.68698 102.059 13.7606C102.022 17.5458 102.205 21.2467 103.813 24.6968C104.653 26.5273 103.191 29.4361 100.925 30.7673C99.2805 31.7236 97.5266 32.5135 95.8096 33.3034C92.4827 34.801 90.8746 37.4191 90.7658 41.4528C90.5091 50.0194 92.2999 58.1689 94.4933 66.2762C95.1505 68.7301 96.9413 69.8528 99.1716 70.4763C98.9149 72.5553 98.6602 74.6342 98.3666 76.7132C97.5266 82.3266 97.4896 87.9401 98.3666 93.5535C98.9888 97.4607 99.9377 101.328 100.486 105.277C100.817 107.689 100.962 110.185 100.706 112.597C100.012 118.668 100.743 124.572 101.583 130.558C102.314 135.424 102.899 140.329 103.337 145.237C103.484 146.941 103.045 148.729 102.679 150.393C102.314 152.097 101.034 152.969 99.646 153.262C97.3438 153.759 94.9677 154.219 92.6285 154.385C90.6199 154.509 89.2666 155.508 88.3527 157.378C88.2808 157.502 88.2069 157.627 88.1699 157.753H130.088C128.663 154.8 126.178 154.219 123.51 154.01Z" fill="#F8D440"/>
<path d="M140.87 197.502C140.724 196.921 140.577 196.337 140.394 195.798C139.225 193.595 135.789 191.64 130.93 190.185V168.272C133.45 167.522 134.912 166.608 134.912 165.694C134.912 164.78 133.45 163.864 130.93 163.116V155.133C130.93 153.387 121.136 151.931 109.075 151.931C97.0152 151.931 87.2211 153.344 87.2211 155.133V163.116C84.6991 163.864 83.2369 164.78 83.2369 165.694C83.2369 166.608 84.6991 167.522 87.2211 168.272V190.185C82.1052 191.722 78.6325 193.801 77.6097 196.131L77.3161 197.336C77.3161 197.378 77.3161 197.46 77.3161 197.502L75.4902 204.986C75.4902 204.986 80.5322 210.726 109.075 211.764C137.617 212.805 142.661 204.156 142.661 204.156L140.87 197.502Z" fill="black"/>
<path d="M125.521 10.2683L125.447 12.8887C125.412 14.0513 124.936 15.134 124.132 15.8396L121.756 17.9186L123.876 17.5037C125.192 17.2529 126.544 17.9607 127.203 19.292L128.297 21.5373L128.152 18.2935C128.115 17.1287 128.663 16.006 129.614 15.5068L131.659 14.3442L129.139 14.4262C127.969 14.4684 126.909 13.7207 126.435 12.5137L125.521 10.2683Z" fill="#D80F88"/>
<path d="M126.58 98.7078L125.375 109.145C125.009 110.558 124.095 111.723 122.89 112.306L116.566 113.678L122.085 114.259C123.804 114.425 125.229 115.799 125.666 117.711L126.763 125.57L127.129 116.837C127.42 115.382 128.408 114.219 129.723 113.926L136.777 113.096L129.431 112.431C127.969 112.056 126.872 110.725 126.617 109.021L126.58 98.7078Z" fill="#D80F88"/>
<path d="M82.6517 71.6812L83.1281 74.2194C83.3478 75.3399 83.0911 76.5469 82.4339 77.461L80.5322 80.1235L82.5058 79.1672C83.7483 78.5415 85.1736 78.9165 86.0875 80.0392L87.6236 81.9096L86.8186 78.7922C86.5269 77.6696 86.8556 76.4226 87.6586 75.6727L89.4144 74.0108L86.9644 74.7586C85.8328 75.0914 84.6253 74.6343 83.9311 73.5937L82.6517 71.6812Z" fill="#D80F88"/>
<path d="M117.517 19.3964C119.114 15.7488 119.057 10.8187 117.193 7.1334C116.821 6.39899 115.474 2.71808 112.054 2.06355C111.754 2.00586 110.877 2.27211 110.189 1.87052C107.154 0.0955205 105.402 0.956396 103.829 1.74627C100.019 3.66105 97.618 8.58668 97.3925 9.25452C96.5 11.8704 96.2842 15.4071 96.5914 15.5003C96.6614 15.5225 98.2947 13.3082 101.431 11.4289C101.431 11.4289 104.256 9.98671 106.106 8.03643C107.134 6.97586 108.388 5.85761 109.876 6.08393C109.654 6.07727 108.351 6.34352 106.982 7.64371C105.835 8.73533 104.472 10.4393 102.629 11.3912C99.4575 13.093 97.6239 14.5396 96.5233 16.035C95.6172 17.262 95.2167 18.5511 94.8764 19.7647C94.6119 20.7033 93.7117 24.9877 95.0203 28.4112C95.4286 29.4851 96.15 30.7453 98.8528 34.3308C99.7317 35.4979 100.694 36.7382 100.556 38.2957C100.498 38.9458 100.157 39.82 99.5819 40.2327C98.3919 41.0847 97.2292 39.4939 97.2292 39.4939C96.7469 39.8178 96.7411 41.402 97.4722 42.2606C98.2169 43.1326 99.7142 43.5142 100.546 43.4233C102.277 42.6245 103.123 42.2806 104.987 39.6736C106.852 37.0688 104.041 33.4345 101.573 31.8813C99.1055 30.3282 98.3492 28.0251 98.0342 26.7605C97.3478 23.9049 97.6005 21.2824 99.0861 18.9771C100.28 17.1244 101.324 15.822 104.597 13.9117C105.196 13.5922 105.703 13.2904 106.131 13.0086C106.074 13.1196 105.931 13.357 105.458 13.7431C104.048 14.8347 103.654 14.797 101.851 16.674C100.047 18.5489 99.0219 20.2329 98.6078 21.7816C98.1936 23.3303 98.3005 24.0957 98.53 26.0083C99.2844 28.6775 99.8639 29.8312 101.402 30.9805C101.746 31.2379 103.309 31.8347 104.877 34.3131C104.9 34.2976 104.48 33.5521 104.466 33.5276C103.477 31.6484 102.537 30.9361 101.787 29.5805C100.634 27.506 100.22 25.1319 101.266 22.7601C101.596 22.0123 102.174 21.2313 102.607 20.7632C100.649 23.5788 100.877 26.1259 102.399 29.1279C102.917 30.1507 103.541 30.6766 104.709 32.5891C105.917 34.566 106.051 35.4469 106.17 36.7448C106.391 39.1633 104.964 40.459 104.719 40.8739C102.627 43.3589 100.626 43.1726 98.6894 47.0531C97.758 48.9213 97.9914 51.5461 98.9325 53.3233C100.101 55.5221 102.973 56.4518 103.138 56.2166C103.302 55.9836 102.302 54.8077 101.787 52.9972C100.873 49.7911 103.605 46.3631 105.734 44.6103C108.344 42.4603 108.423 40.033 108.423 40.033C108.771 41.9744 107.22 43.9713 105.246 45.3425C103.105 47.2306 101.939 49.587 102.082 50.6586C102.226 51.7281 102.755 52.3648 103.689 52.7287C104.622 53.0948 105.582 53.2057 106.669 52.356C107.758 51.5084 107.325 49.7334 107.097 49.3385C107.576 48.9346 105.61 50.8849 105.479 49.2763C105.347 47.6677 110.832 43.8027 111.027 40.4169C111.198 37.3883 109.357 34.8411 108.672 33.9625C107.708 32.7245 106.422 30.7032 105.242 28.105C103.932 25.2606 103.562 24.7747 103.477 20.4392C103.484 20.3816 106.712 17.7501 107.861 16.0772C110.451 12.2964 110.006 8.19396 111.35 8.0564C111.63 9.09921 111.923 9.37433 113.428 11.0761C114.935 12.7779 115.441 18.2848 113.38 22.07C112.439 23.7984 111.886 24.7725 111.27 25.4802C109.25 27.8011 111.49 31.7393 111.608 31.9568C112.579 33.7406 114.5 34.5172 114.679 34.3308C114.679 34.3308 113.294 32.8154 112.841 31.1114C112.664 30.4502 112.532 28.1028 113.947 25.8486C115.898 22.7445 116.394 21.968 117.517 19.3964Z" fill="black"/>
</svg>
